<?xml version="1.0" encoding="UTF-8" standalone="no"?>
<!DOCTYPE svg PUBLIC "-//W3C//DTD SVG 1.1//EN" "http://www.w3.org/Graphics/SVG/1.1/DTD/svg11.dtd">
<svg width="100%" height="100%" viewBox="0 0 744 454" version="1.1" xmlns="http://www.w3.org/2000/svg" xmlns:xlink="http://www.w3.org/1999/xlink" xml:space="preserve" xmlns:serif="http://www.serif.com/" style="fill-rule:evenodd;clip-rule:evenodd;stroke-linejoin:round;stroke-miterlimit:2;">
    <g transform="matrix(1,0,0,1,-554.92,-149.418)">
        <g transform="matrix(0.984849,-0.173412,0.173412,0.984849,-73.1974,-51.4099)">
            <g transform="matrix(3.44896,-2.08174e-17,-2.03074e-16,1.5366,-912.566,96.1507)">
                <rect x="443.859" y="341.296" width="185.094" height="99.031" style="fill:#ffb100;"/>
            </g>
            <g transform="matrix(0.989258,5.1114e-18,2.57167e-18,0.989258,219.698,163.716)">
                <g transform="matrix(144,0,0,144,423.9,594.673)">
                    <path d="M0.054,-0L0.054,-0.73L0.217,-0.73L0.299,-0.416L0.382,-0.73L0.546,-0.73L0.546,-0L0.429,-0L0.429,-0.307C0.429,-0.349 0.43,-0.392 0.433,-0.437C0.435,-0.482 0.438,-0.526 0.441,-0.568C0.445,-0.611 0.448,-0.649 0.452,-0.684L0.349,-0.317L0.246,-0.317L0.147,-0.675C0.151,-0.644 0.155,-0.61 0.159,-0.571C0.162,-0.532 0.165,-0.49 0.167,-0.446C0.17,-0.402 0.171,-0.355 0.171,-0.307L0.171,-0L0.054,-0Z" style="fill-rule:nonzero;"/>
                </g>
                <g transform="matrix(144,0,0,144,510.3,594.673)">
                    <path d="M0.076,-0L0.076,-0.113L0.264,-0.113L0.264,-0.437L0.096,-0.437L0.096,-0.55L0.389,-0.55L0.389,-0.113L0.558,-0.113L0.558,-0L0.076,-0ZM0.318,-0.642C0.293,-0.642 0.273,-0.649 0.258,-0.662C0.243,-0.675 0.236,-0.692 0.236,-0.714C0.236,-0.736 0.243,-0.753 0.258,-0.767C0.273,-0.78 0.293,-0.786 0.318,-0.786C0.343,-0.786 0.363,-0.78 0.378,-0.767C0.393,-0.753 0.4,-0.736 0.4,-0.714C0.4,-0.692 0.393,-0.675 0.378,-0.662C0.363,-0.649 0.343,-0.642 0.318,-0.642Z" style="fill-rule:nonzero;"/>
                </g>
                <g transform="matrix(144,0,0,144,596.7,594.673)">
                    <path d="M0.277,0.009C0.234,0.009 0.196,0.002 0.164,-0.011C0.133,-0.025 0.108,-0.044 0.091,-0.068C0.073,-0.093 0.065,-0.122 0.065,-0.156L0.188,-0.156C0.188,-0.135 0.196,-0.118 0.211,-0.107C0.227,-0.096 0.249,-0.09 0.277,-0.09L0.321,-0.09C0.351,-0.09 0.374,-0.096 0.391,-0.107C0.407,-0.119 0.415,-0.135 0.415,-0.156C0.415,-0.176 0.41,-0.191 0.398,-0.201C0.387,-0.211 0.369,-0.217 0.346,-0.22L0.209,-0.238C0.165,-0.244 0.131,-0.261 0.107,-0.289C0.083,-0.317 0.072,-0.354 0.072,-0.398C0.072,-0.45 0.089,-0.49 0.124,-0.518C0.158,-0.545 0.209,-0.559 0.274,-0.559L0.32,-0.559C0.381,-0.559 0.431,-0.545 0.468,-0.517C0.505,-0.489 0.525,-0.452 0.526,-0.405L0.402,-0.405C0.401,-0.422 0.394,-0.436 0.379,-0.447C0.364,-0.457 0.345,-0.462 0.32,-0.462L0.274,-0.462C0.248,-0.462 0.227,-0.457 0.213,-0.446C0.199,-0.435 0.192,-0.42 0.192,-0.401C0.192,-0.384 0.197,-0.372 0.208,-0.364C0.218,-0.356 0.233,-0.351 0.253,-0.349L0.382,-0.331C0.433,-0.325 0.471,-0.307 0.497,-0.277C0.523,-0.247 0.535,-0.207 0.535,-0.158C0.535,-0.105 0.517,-0.064 0.481,-0.035C0.444,-0.005 0.391,0.009 0.321,0.009L0.277,0.009Z" style="fill-rule:nonzero;"/>
                </g>
                <g transform="matrix(144,0,0,144,683.1,594.673)">
                    <path d="M0.2,-0L0.2,-0.362L0.049,-0.362L0.049,-0.475L0.2,-0.475L0.2,-0.572C0.2,-0.62 0.216,-0.659 0.248,-0.687C0.28,-0.716 0.322,-0.73 0.375,-0.73L0.536,-0.73L0.536,-0.62L0.378,-0.62C0.362,-0.62 0.349,-0.615 0.34,-0.607C0.33,-0.598 0.325,-0.585 0.325,-0.57L0.325,-0.475L0.536,-0.475L0.536,-0.362L0.325,-0.362L0.325,-0L0.2,-0Z" style="fill-rule:nonzero;"/>
                </g>
                <g transform="matrix(144,0,0,144,769.5,594.673)">
                    <path d="M0.076,-0L0.076,-0.113L0.264,-0.113L0.264,-0.437L0.096,-0.437L0.096,-0.55L0.389,-0.55L0.389,-0.113L0.558,-0.113L0.558,-0L0.076,-0ZM0.318,-0.642C0.293,-0.642 0.273,-0.649 0.258,-0.662C0.243,-0.675 0.236,-0.692 0.236,-0.714C0.236,-0.736 0.243,-0.753 0.258,-0.767C0.273,-0.78 0.293,-0.786 0.318,-0.786C0.343,-0.786 0.363,-0.78 0.378,-0.767C0.393,-0.753 0.4,-0.736 0.4,-0.714C0.4,-0.692 0.393,-0.675 0.378,-0.662C0.363,-0.649 0.343,-0.642 0.318,-0.642Z" style="fill-rule:nonzero;"/>
                </g>
                <g transform="matrix(144,0,0,144,855.9,594.673)">
                    <path d="M0.355,-0C0.303,-0 0.263,-0.015 0.233,-0.044C0.202,-0.074 0.187,-0.114 0.187,-0.165L0.187,-0.437L0.035,-0.437L0.035,-0.55L0.187,-0.55L0.187,-0.705L0.313,-0.705L0.313,-0.55L0.532,-0.55L0.532,-0.437L0.313,-0.437L0.313,-0.168C0.313,-0.152 0.317,-0.139 0.326,-0.128C0.335,-0.118 0.348,-0.113 0.364,-0.113L0.527,-0.113L0.527,-0L0.355,-0Z" style="fill-rule:nonzero;"/>
                </g>
                <g transform="matrix(144,0,0,144,942.3,594.673)">
                    <path d="M0.277,0.009C0.234,0.009 0.196,0.002 0.164,-0.011C0.133,-0.025 0.108,-0.044 0.091,-0.068C0.073,-0.093 0.065,-0.122 0.065,-0.156L0.188,-0.156C0.188,-0.135 0.196,-0.118 0.211,-0.107C0.227,-0.096 0.249,-0.09 0.277,-0.09L0.321,-0.09C0.351,-0.09 0.374,-0.096 0.391,-0.107C0.407,-0.119 0.415,-0.135 0.415,-0.156C0.415,-0.176 0.41,-0.191 0.398,-0.201C0.387,-0.211 0.369,-0.217 0.346,-0.22L0.209,-0.238C0.165,-0.244 0.131,-0.261 0.107,-0.289C0.083,-0.317 0.072,-0.354 0.072,-0.398C0.072,-0.45 0.089,-0.49 0.124,-0.518C0.158,-0.545 0.209,-0.559 0.274,-0.559L0.32,-0.559C0.381,-0.559 0.431,-0.545 0.468,-0.517C0.505,-0.489 0.525,-0.452 0.526,-0.405L0.402,-0.405C0.401,-0.422 0.394,-0.436 0.379,-0.447C0.364,-0.457 0.345,-0.462 0.32,-0.462L0.274,-0.462C0.248,-0.462 0.227,-0.457 0.213,-0.446C0.199,-0.435 0.192,-0.42 0.192,-0.401C0.192,-0.384 0.197,-0.372 0.208,-0.364C0.218,-0.356 0.233,-0.351 0.253,-0.349L0.382,-0.331C0.433,-0.325 0.471,-0.307 0.497,-0.277C0.523,-0.247 0.535,-0.207 0.535,-0.158C0.535,-0.105 0.517,-0.064 0.481,-0.035C0.444,-0.005 0.391,0.009 0.321,0.009L0.277,0.009Z" style="fill-rule:nonzero;"/>
                </g>
            </g>
        </g>
        <g>
            <rect x="554.92" y="149.418" width="618.337" height="149.118" style="fill:#ff5c00;"/>
            <g transform="matrix(1,0,0,1,11.7809,-15.8097)">
                <g transform="matrix(144,0,0,144,582.349,291.373)">
                    <rect x="0.072" y="-0.727" width="0.132" height="0.727" style="fill:#fff;fill-rule:nonzero;"/>
                </g>
                <g transform="matrix(144,0,0,144,620.394,291.373)">
                    <path d="M0.195,-0.32L0.195,-0L0.066,-0L0.066,-0.545L0.189,-0.545L0.189,-0.453L0.195,-0.453C0.208,-0.483 0.228,-0.508 0.255,-0.526C0.283,-0.544 0.317,-0.553 0.358,-0.553C0.396,-0.553 0.428,-0.545 0.456,-0.528C0.484,-0.512 0.506,-0.489 0.522,-0.458C0.537,-0.428 0.545,-0.391 0.545,-0.347L0.545,-0L0.416,-0L0.416,-0.327C0.416,-0.364 0.407,-0.392 0.388,-0.413C0.369,-0.433 0.343,-0.444 0.31,-0.444C0.287,-0.444 0.268,-0.439 0.25,-0.429C0.233,-0.419 0.219,-0.405 0.209,-0.387C0.2,-0.368 0.195,-0.346 0.195,-0.32Z" style="fill:#fff;fill-rule:nonzero;"/>
                </g>
                <g transform="matrix(144,0,0,144,704.667,291.373)">
                    <path d="M0.338,-0.545L0.338,-0.446L0.025,-0.446L0.025,-0.545L0.338,-0.545ZM0.102,-0.676L0.231,-0.676L0.231,-0.164C0.231,-0.147 0.234,-0.134 0.239,-0.124C0.244,-0.115 0.251,-0.109 0.26,-0.106C0.269,-0.103 0.278,-0.101 0.289,-0.101C0.297,-0.101 0.304,-0.101 0.311,-0.103C0.318,-0.104 0.323,-0.105 0.327,-0.106L0.348,-0.005C0.341,-0.003 0.332,-0 0.319,0.002C0.306,0.005 0.291,0.007 0.273,0.007C0.241,0.008 0.212,0.003 0.186,-0.007C0.16,-0.018 0.14,-0.035 0.125,-0.058C0.11,-0.08 0.102,-0.109 0.102,-0.143L0.102,-0.676Z" style="fill:#fff;fill-rule:nonzero;"/>
                </g>
                <g transform="matrix(144,0,0,144,756.213,291.373)">
                    <path d="M0.308,0.011C0.253,0.011 0.206,-0.001 0.166,-0.024C0.126,-0.047 0.096,-0.079 0.075,-0.121C0.053,-0.163 0.043,-0.213 0.043,-0.27C0.043,-0.326 0.053,-0.375 0.075,-0.417C0.096,-0.46 0.126,-0.493 0.165,-0.517C0.203,-0.541 0.249,-0.553 0.301,-0.553C0.334,-0.553 0.366,-0.547 0.396,-0.536C0.426,-0.526 0.453,-0.509 0.476,-0.487C0.499,-0.464 0.517,-0.436 0.53,-0.401C0.543,-0.366 0.55,-0.325 0.55,-0.277L0.55,-0.237L0.103,-0.237L0.103,-0.324L0.427,-0.324C0.427,-0.349 0.421,-0.371 0.411,-0.39C0.401,-0.409 0.386,-0.425 0.368,-0.436C0.349,-0.447 0.327,-0.452 0.303,-0.452C0.276,-0.452 0.253,-0.446 0.233,-0.433C0.213,-0.421 0.198,-0.404 0.187,-0.384C0.176,-0.363 0.17,-0.341 0.17,-0.316L0.17,-0.241C0.17,-0.209 0.176,-0.182 0.187,-0.159C0.199,-0.137 0.215,-0.119 0.236,-0.107C0.257,-0.095 0.281,-0.089 0.309,-0.089C0.328,-0.089 0.345,-0.092 0.36,-0.097C0.375,-0.103 0.388,-0.111 0.4,-0.121C0.411,-0.132 0.419,-0.145 0.425,-0.16L0.545,-0.146C0.537,-0.115 0.523,-0.087 0.502,-0.064C0.48,-0.04 0.453,-0.022 0.42,-0.009C0.388,0.004 0.35,0.011 0.308,0.011Z" style="fill:#fff;fill-rule:nonzero;"/>
                </g>
                <g transform="matrix(144,0,0,144,840.076,291.373)">
                    <path d="M0.066,-0L0.066,-0.545L0.191,-0.545L0.191,-0.455L0.196,-0.455C0.206,-0.486 0.223,-0.51 0.248,-0.528C0.272,-0.545 0.3,-0.553 0.331,-0.553C0.338,-0.553 0.346,-0.553 0.355,-0.552C0.364,-0.552 0.371,-0.551 0.377,-0.55L0.377,-0.432C0.372,-0.433 0.363,-0.435 0.351,-0.437C0.34,-0.438 0.328,-0.439 0.318,-0.439C0.294,-0.439 0.273,-0.434 0.254,-0.424C0.236,-0.414 0.221,-0.4 0.211,-0.382C0.2,-0.364 0.195,-0.344 0.195,-0.321L0.195,-0L0.066,-0Z" style="fill:#fff;fill-rule:nonzero;"/>
                </g>
                <g transform="matrix(144,0,0,144,893.667,291.373)">
                    <path d="M0.195,-0.32L0.195,-0L0.066,-0L0.066,-0.545L0.189,-0.545L0.189,-0.453L0.195,-0.453C0.208,-0.483 0.228,-0.508 0.255,-0.526C0.283,-0.544 0.317,-0.553 0.358,-0.553C0.396,-0.553 0.428,-0.545 0.456,-0.528C0.484,-0.512 0.506,-0.489 0.522,-0.458C0.537,-0.428 0.545,-0.391 0.545,-0.347L0.545,-0L0.416,-0L0.416,-0.327C0.416,-0.364 0.407,-0.392 0.388,-0.413C0.369,-0.433 0.343,-0.444 0.31,-0.444C0.287,-0.444 0.268,-0.439 0.25,-0.429C0.233,-0.419 0.219,-0.405 0.209,-0.387C0.2,-0.368 0.195,-0.346 0.195,-0.32Z" style="fill:#fff;fill-rule:nonzero;"/>
                </g>
                <g transform="matrix(144,0,0,144,977.94,291.373)">
                    <path d="M0.308,0.011C0.253,0.011 0.206,-0.001 0.166,-0.024C0.126,-0.047 0.096,-0.079 0.075,-0.121C0.053,-0.163 0.043,-0.213 0.043,-0.27C0.043,-0.326 0.053,-0.375 0.075,-0.417C0.096,-0.46 0.126,-0.493 0.165,-0.517C0.203,-0.541 0.249,-0.553 0.301,-0.553C0.334,-0.553 0.366,-0.547 0.396,-0.536C0.426,-0.526 0.453,-0.509 0.476,-0.487C0.499,-0.464 0.517,-0.436 0.53,-0.401C0.543,-0.366 0.55,-0.325 0.55,-0.277L0.55,-0.237L0.103,-0.237L0.103,-0.324L0.427,-0.324C0.427,-0.349 0.421,-0.371 0.411,-0.39C0.401,-0.409 0.386,-0.425 0.368,-0.436C0.349,-0.447 0.327,-0.452 0.303,-0.452C0.276,-0.452 0.253,-0.446 0.233,-0.433C0.213,-0.421 0.198,-0.404 0.187,-0.384C0.176,-0.363 0.17,-0.341 0.17,-0.316L0.17,-0.241C0.17,-0.209 0.176,-0.182 0.187,-0.159C0.199,-0.137 0.215,-0.119 0.236,-0.107C0.257,-0.095 0.281,-0.089 0.309,-0.089C0.328,-0.089 0.345,-0.092 0.36,-0.097C0.375,-0.103 0.388,-0.111 0.4,-0.121C0.411,-0.132 0.419,-0.145 0.425,-0.16L0.545,-0.146C0.537,-0.115 0.523,-0.087 0.502,-0.064C0.48,-0.04 0.453,-0.022 0.42,-0.009C0.388,0.004 0.35,0.011 0.308,0.011Z" style="fill:#fff;fill-rule:nonzero;"/>
                </g>
                <g transform="matrix(144,0,0,144,1061.8,291.373)">
                    <path d="M0.338,-0.545L0.338,-0.446L0.025,-0.446L0.025,-0.545L0.338,-0.545ZM0.102,-0.676L0.231,-0.676L0.231,-0.164C0.231,-0.147 0.234,-0.134 0.239,-0.124C0.244,-0.115 0.251,-0.109 0.26,-0.106C0.269,-0.103 0.278,-0.101 0.289,-0.101C0.297,-0.101 0.304,-0.101 0.311,-0.103C0.318,-0.104 0.323,-0.105 0.327,-0.106L0.348,-0.005C0.341,-0.003 0.332,-0 0.319,0.002C0.306,0.005 0.291,0.007 0.273,0.007C0.241,0.008 0.212,0.003 0.186,-0.007C0.16,-0.018 0.14,-0.035 0.125,-0.058C0.11,-0.08 0.102,-0.109 0.102,-0.143L0.102,-0.676Z" style="fill:#fff;fill-rule:nonzero;"/>
                </g>
            </g>
        </g>
        <g transform="matrix(0.702979,0,0,0.702979,484.115,-8.0723)">
            <g transform="matrix(144,0,0,144,491.418,560.976)">
                <path d="M0.035,-0L0.035,-0.049L0.138,-0.062L0.208,-0.062L0.319,-0.049L0.319,-0L0.035,-0ZM0.105,-0C0.106,-0.024 0.106,-0.048 0.106,-0.071C0.106,-0.095 0.107,-0.119 0.107,-0.142C0.107,-0.166 0.107,-0.19 0.107,-0.213L0.107,-0.425L0.031,-0.425L0.031,-0.478L0.146,-0.493L0.108,-0.466L0.109,-0.482C0.113,-0.516 0.118,-0.546 0.125,-0.57C0.132,-0.595 0.141,-0.617 0.152,-0.635C0.163,-0.654 0.177,-0.67 0.194,-0.686C0.214,-0.705 0.237,-0.719 0.262,-0.728C0.288,-0.736 0.314,-0.741 0.341,-0.741C0.37,-0.741 0.394,-0.736 0.415,-0.726C0.435,-0.716 0.448,-0.7 0.454,-0.678C0.454,-0.662 0.448,-0.649 0.437,-0.638C0.426,-0.627 0.41,-0.621 0.389,-0.621C0.373,-0.621 0.358,-0.625 0.346,-0.634C0.333,-0.642 0.32,-0.654 0.306,-0.671L0.271,-0.711L0.281,-0.712L0.304,-0.712L0.313,-0.711C0.303,-0.709 0.294,-0.706 0.287,-0.701C0.28,-0.696 0.273,-0.689 0.266,-0.678C0.259,-0.667 0.253,-0.655 0.248,-0.642C0.243,-0.629 0.238,-0.614 0.236,-0.597C0.233,-0.579 0.231,-0.559 0.23,-0.535C0.229,-0.511 0.23,-0.482 0.231,-0.45L0.231,-0.213C0.231,-0.19 0.231,-0.166 0.231,-0.142C0.231,-0.119 0.232,-0.095 0.232,-0.071C0.232,-0.048 0.232,-0.024 0.233,-0L0.105,-0ZM0.173,-0.425L0.173,-0.488L0.35,-0.488L0.35,-0.425L0.173,-0.425Z" style="fill-rule:nonzero;"/>
            </g>
            <g transform="matrix(144,0,0,144,542.394,560.976)">
                <path d="M0.289,0.014C0.243,0.014 0.202,0.004 0.164,-0.016C0.126,-0.036 0.096,-0.065 0.073,-0.104C0.051,-0.143 0.04,-0.189 0.04,-0.244C0.04,-0.299 0.051,-0.346 0.074,-0.384C0.097,-0.423 0.128,-0.453 0.166,-0.473C0.204,-0.493 0.245,-0.503 0.289,-0.503C0.333,-0.503 0.375,-0.493 0.412,-0.473C0.45,-0.453 0.481,-0.424 0.504,-0.386C0.527,-0.347 0.539,-0.301 0.539,-0.246C0.539,-0.191 0.528,-0.144 0.505,-0.105C0.482,-0.066 0.452,-0.037 0.414,-0.017C0.376,0.004 0.335,0.014 0.289,0.014ZM0.289,-0.04C0.314,-0.04 0.335,-0.047 0.353,-0.062C0.37,-0.076 0.383,-0.099 0.392,-0.129C0.402,-0.158 0.406,-0.197 0.406,-0.243C0.406,-0.29 0.402,-0.329 0.392,-0.359C0.383,-0.389 0.37,-0.412 0.353,-0.427C0.335,-0.441 0.314,-0.449 0.289,-0.449C0.264,-0.449 0.243,-0.442 0.225,-0.427C0.208,-0.412 0.195,-0.39 0.186,-0.36C0.177,-0.329 0.172,-0.291 0.172,-0.244C0.172,-0.198 0.177,-0.16 0.186,-0.129C0.195,-0.099 0.208,-0.077 0.225,-0.062C0.243,-0.048 0.264,-0.04 0.289,-0.04Z" style="fill-rule:nonzero;"/>
            </g>
            <g transform="matrix(144,0,0,144,621.45,560.976)">
                <path d="M0.037,-0L0.037,-0.049L0.143,-0.062L0.204,-0.062L0.319,-0.049L0.319,-0L0.037,-0ZM0.104,-0C0.105,-0.018 0.105,-0.04 0.105,-0.065C0.106,-0.09 0.106,-0.115 0.106,-0.141C0.106,-0.168 0.106,-0.192 0.106,-0.213L0.106,-0.267C0.106,-0.285 0.106,-0.3 0.106,-0.313C0.106,-0.327 0.106,-0.339 0.105,-0.352C0.105,-0.364 0.105,-0.377 0.104,-0.391L0.031,-0.397L0.031,-0.441L0.189,-0.499L0.215,-0.492L0.225,-0.362L0.23,-0.361L0.23,-0.213C0.23,-0.192 0.23,-0.168 0.23,-0.141C0.231,-0.115 0.231,-0.09 0.231,-0.065C0.231,-0.04 0.232,-0.018 0.232,-0L0.104,-0ZM0.222,-0.278L0.206,-0.355L0.231,-0.355C0.241,-0.386 0.254,-0.413 0.268,-0.435C0.283,-0.457 0.299,-0.473 0.317,-0.485C0.335,-0.496 0.354,-0.502 0.374,-0.502C0.395,-0.502 0.412,-0.496 0.427,-0.486C0.441,-0.475 0.451,-0.461 0.456,-0.444C0.454,-0.42 0.448,-0.401 0.436,-0.387C0.424,-0.372 0.407,-0.365 0.386,-0.365C0.371,-0.365 0.358,-0.368 0.347,-0.374C0.336,-0.381 0.325,-0.389 0.315,-0.401L0.291,-0.426L0.34,-0.425C0.312,-0.411 0.288,-0.391 0.268,-0.365C0.248,-0.34 0.233,-0.311 0.222,-0.278Z" style="fill-rule:nonzero;"/>
            </g>
        </g>
    </g>
</svg>
